<?xml version="1.0" encoding="iso-8859-1"?>
<!-- Uploaded to: SVG Repo, www.svgrepo.com, Generator: SVG Repo Mixer Tools -->
<svg height="800px" width="800px" version="1.1" id="Layer_1" xmlns="http://www.w3.org/2000/svg" xmlns:xlink="http://www.w3.org/1999/xlink" 
	 viewBox="0 0 502.5 502.5" xml:space="preserve">
<path style="fill:#CB5A30;" d="M338.65,10.9l-223.6,223.6c-4.4,4.4-6.8,10.8-6.8,16.8s2.4,12,6.8,16.8l223.6,223.6
	c9.2,9.2,24,9.2,33.2,0l16.4-16.4c9.2-9.2,9.2-24,0-33.2l-190.4-190.4l190.8-190.8c9.2-9.2,9.2-24,0-33.2l-16.4-16.4
	C363.05,1.7,347.85,1.7,338.65,10.9z"/>
<path style="fill:#E07D46;" d="M133.45,244.1c-2,2-3.2,4.8-2.8,7.6c0,2.8,0.8,5.2,2.8,7.6l183.2,183.2l20,20l11.2,11.2
	c4,4,10.4,4,14.4,0l7.6-7.6c4-4,4-10.4,0-14.4l-182.8-182.8l-16.8-16.8l16.8-16.8l182.8-182.8c4-4,4-10.4,0-14.4l-7.6-7.6
	c-4-4-10.4-4-14.4,0L133.45,244.1z"/>
<path d="M355.05,502.5c-7.2,0-14.4-2.8-19.6-8l-223.6-223.6c-5.2-5.2-8-12-8-19.6c0-7.2,2.8-14.4,8-19.6L335.45,8.1l2.8,2.8
	l-2.8-2.8c10.8-10.8,28.4-10.8,38.8,0l16.4,16.4c5.2,5.2,8,12,8,19.6c0,7.2-2.8,14.4-8,19.6l-187.6,187.6l187.6,187.6
	c5.2,5.2,8,12,8,19.6c0,7.2-2.8,14.4-8,19.6l-16.4,16.4C369.45,499.7,362.65,502.5,355.05,502.5z M341.45,13.7l-223.6,223.6
	c-3.6,3.6-5.6,8.8-5.6,14s2,10.4,5.6,14l223.6,223.6c3.6,3.6,8.4,5.6,14,5.6s10-2,14-5.6l16.4-16.4c3.6-3.6,5.6-8.4,5.6-14
	s-2-10-5.6-14l-190.4-190.4c-1.6-1.6-1.6-4,0-5.6l190.8-190.8c3.6-3.6,5.6-8.4,5.6-14c0-5.2-2-10-5.6-14l-16.4-16.4
	C361.45,6.1,349.05,6.1,341.45,13.7L341.45,13.7z"/>
<path d="M355.05,480.1c-4,0-7.2-1.6-10-4l-214.4-214.4c-2.8-2.8-4.4-6.4-4-10.4c0-3.6,1.2-7.6,4-10l187.2-187.2c1.6-1.6,4-1.6,5.6,0
	s1.6,4,0,5.6l-187.2,187.2c-1.2,1.2-2,2.8-1.6,4.4c0,2,0.4,3.6,1.6,4.8l214.4,214.4c2.4,2.4,6.4,2.4,8.8,0l7.6-7.6
	c2.4-2.4,2.4-6.4,0-8.8l-199.6-199.6c-0.8-0.8-1.2-1.6-1.2-2.8s0.4-2,1.2-2.8l200-200c1.2-1.2,2-2.8,2-4.4s-0.8-3.2-2-4.4l-7.6-7.6
	c-2.4-2.4-6.4-2.4-8.8,0l-4,4c-1.6,1.6-4,1.6-5.6,0s-1.6-4,0-5.6l4-4c5.6-5.6,14.4-5.6,20,0l7.6,7.6c2.8,2.8,4,6.4,4,10
	c0,4-1.6,7.2-4,10l-197.2,196.8l196.8,196.8c5.6,5.6,5.6,14.4,0,20l-7.6,7.6C362.65,478.5,359.05,480.1,355.05,480.1z"/>
</svg>