<?xml version="1.0" encoding="iso-8859-1"?>
<!-- Uploaded to: SVG Repo, www.svgrepo.com, Generator: SVG Repo Mixer Tools -->
<svg height="800px" width="800px" version="1.1" id="Layer_1" xmlns="http://www.w3.org/2000/svg" xmlns:xlink="http://www.w3.org/1999/xlink" 
	 viewBox="0 0 502.4 502.4" xml:space="preserve">
<path style="fill:#CB5A30;" d="M164.4,491.6L388,268c4.4-4.4,6.8-10.8,6.8-16.8s-2.4-12-6.8-16.8L164.4,10.8c-9.2-9.2-24-9.2-33.2,0
	l-16.4,16.4c-9.2,9.2-9.2,24,0,33.2l190.4,190.4L114.4,441.6c-9.2,9.2-9.2,24,0,33.2l16.4,16.4C140,500.8,155.2,500.8,164.4,491.6z"
	/>
<path style="fill:#E07D46;" d="M194.8,68.8l174.8,174.8c2,2,3.2,4.8,2.8,7.6c0,2.8-0.8,5.2-2.8,7.6L155.2,473.2c-4,4-10.4,4-14.4,0
	l-7.6-7.6c-4-4-4-10.4,0-14.4L316,268.4l16.8-16.8L316,234.8L133.2,52c-4-4-4-10.4,0-14.4l7.6-7.6c4-4,10.4-4,14.4,0L194,68.8
	L194.8,68.8z"/>
<path d="M147.6,502.4c-7.2,0-14.4-2.8-19.6-8L111.6,478c-5.2-5.2-8-12-8-19.6c0-7.2,2.8-14.4,8-19.6l187.6-187.6L111.6,63.6
	c-5.2-5.2-8-12-8-19.6c0-7.2,2.8-14.4,8-19.6L128,8c5.2-5.2,12-8,19.6-8c7.2,0,14.4,2.8,19.6,8l223.6,223.6c5.2,5.2,8,12,8,19.6
	c0,7.2-2.8,14.4-8,19.6L167.2,494.4C162,499.6,154.8,502.4,147.6,502.4L147.6,502.4z M148,8c-5.2,0-10,2-14,5.6L117.6,30
	c-3.6,3.6-5.6,8.4-5.6,14c0,5.2,2,10,5.6,14L308,248.4c1.6,1.6,1.6,4,0,5.6L117.2,444.8c-3.6,3.6-5.6,8.4-5.6,14c0,5.2,2,10,5.6,14
	l16.4,16.4c3.6,3.6,8.4,5.6,14,5.6c5.2,0,10-2,14-5.6l223.6-223.6c3.6-3.6,5.6-8.8,5.6-14s-2-10.4-5.6-14L161.6,14
	C158,10,153.2,8,148,8z"/>
<path d="M147.6,480c-4,0-7.2-1.6-10-4l-7.6-7.6c-2.8-2.8-4-6.4-4-10s1.6-7.2,4-10l197.2-197.2L130.4,54.4c-2.8-2.8-4-6.4-4-10
	c0-4,1.6-7.2,4-10l7.6-7.6c2.8-2.8,6.4-4,10-4l0,0c4,0,7.2,1.6,10,4L173.2,42c1.6,1.6,1.6,4,0,5.6s-4,1.6-5.6,0l-15.2-15.2
	c-1.2-1.2-2.8-2-4.4-2l0,0c-1.6,0-3.2,0.8-4.4,2L136,40c-1.2,1.2-2,2.8-2,4.4s0.8,3.2,2,4.4l199.6,199.6c1.6,1.6,1.6,4,0,5.6
	l-200,200c-1.2,1.2-2,2.8-2,4.4s0.8,3.2,2,4.4l7.6,7.6c2.4,2.4,6.4,2.4,8.8,0L366.4,256c1.2-1.2,2-2.8,1.6-4.4c0-2-0.8-3.6-1.6-4.8
	L191.6,72c-1.6-1.6-1.6-4,0-5.6s4-1.6,5.6,0L372,241.2c2.8,2.8,4.4,6.4,4,10.4c0,3.6-1.2,7.6-4,10L157.6,476
	C155.2,478.4,151.6,480,147.6,480z"/>
</svg>